<mxfile host="Electron" agent="Mozilla/5.0 (Windows NT 10.0; Win64; x64) AppleWebKit/537.36 (KHTML, like Gecko) draw.io/28.0.4 Chrome/138.0.7204.97 Electron/37.2.1 Safari/537.36" version="28.0.4" pages="2">
  <diagram name="DFD AS IS" id="HJ2lbc-jCK95nl5lynkH">
    <mxGraphModel dx="1042" dy="730" grid="1" gridSize="10" guides="1" tooltips="1" connect="1" arrows="1" fold="1" page="1" pageScale="1" pageWidth="827" pageHeight="1169" math="0" shadow="0">
      <root>
        <mxCell id="0" />
        <mxCell id="1" parent="0" />
        <mxCell id="wPPUQkq8BsEHEaZaGagc-8" style="edgeStyle=orthogonalEdgeStyle;rounded=0;orthogonalLoop=1;jettySize=auto;html=1;" parent="1" source="wPPUQkq8BsEHEaZaGagc-1" target="wPPUQkq8BsEHEaZaGagc-2" edge="1">
          <mxGeometry relative="1" as="geometry" />
        </mxCell>
        <mxCell id="wPPUQkq8BsEHEaZaGagc-9" value="Оплата за услуги" style="edgeLabel;html=1;align=center;verticalAlign=middle;resizable=0;points=[];" parent="wPPUQkq8BsEHEaZaGagc-8" vertex="1" connectable="0">
          <mxGeometry y="-1" relative="1" as="geometry">
            <mxPoint as="offset" />
          </mxGeometry>
        </mxCell>
        <mxCell id="wPPUQkq8BsEHEaZaGagc-1" value="Пациент" style="sketch=0;outlineConnect=0;fontColor=#232F3E;gradientColor=none;fillColor=#232F3D;strokeColor=none;dashed=0;verticalLabelPosition=bottom;verticalAlign=top;align=center;html=1;fontSize=12;fontStyle=0;aspect=fixed;pointerEvents=1;shape=mxgraph.aws4.user;" parent="1" vertex="1">
          <mxGeometry x="17" y="40" width="78" height="78" as="geometry" />
        </mxCell>
        <mxCell id="wPPUQkq8BsEHEaZaGagc-15" value="" style="edgeStyle=orthogonalEdgeStyle;rounded=0;orthogonalLoop=1;jettySize=auto;html=1;" parent="1" source="wPPUQkq8BsEHEaZaGagc-35" target="wPPUQkq8BsEHEaZaGagc-7" edge="1">
          <mxGeometry relative="1" as="geometry" />
        </mxCell>
        <mxCell id="wPPUQkq8BsEHEaZaGagc-2" value="Кассир" style="sketch=0;outlineConnect=0;fontColor=#232F3E;gradientColor=none;fillColor=#232F3D;strokeColor=none;dashed=0;verticalLabelPosition=bottom;verticalAlign=top;align=center;html=1;fontSize=12;fontStyle=0;aspect=fixed;pointerEvents=1;shape=mxgraph.aws4.user;" parent="1" vertex="1">
          <mxGeometry x="17" y="290" width="78" height="78" as="geometry" />
        </mxCell>
        <mxCell id="wPPUQkq8BsEHEaZaGagc-19" style="edgeStyle=orthogonalEdgeStyle;rounded=0;orthogonalLoop=1;jettySize=auto;html=1;exitX=1;exitY=0.5;exitDx=0;exitDy=0;entryX=0;entryY=0.5;entryDx=0;entryDy=0;" parent="1" source="wPPUQkq8BsEHEaZaGagc-3" target="wPPUQkq8BsEHEaZaGagc-18" edge="1">
          <mxGeometry relative="1" as="geometry" />
        </mxCell>
        <mxCell id="wPPUQkq8BsEHEaZaGagc-3" value="ККМ" style="rounded=0;whiteSpace=wrap;html=1;fillColor=#d5e8d4;strokeColor=#82b366;" parent="1" vertex="1">
          <mxGeometry x="460" y="200" width="120" height="60" as="geometry" />
        </mxCell>
        <mxCell id="wPPUQkq8BsEHEaZaGagc-5" value="1C: Бухгалтерия&lt;div&gt;предприятия&lt;/div&gt;" style="rounded=0;whiteSpace=wrap;html=1;fillColor=#d5e8d4;strokeColor=#82b366;" parent="1" vertex="1">
          <mxGeometry x="880" y="200" width="120" height="60" as="geometry" />
        </mxCell>
        <mxCell id="wPPUQkq8BsEHEaZaGagc-21" value="" style="edgeStyle=orthogonalEdgeStyle;rounded=0;orthogonalLoop=1;jettySize=auto;html=1;" parent="1" source="sHouWCvEc6YfrePmr9zX-6" target="wPPUQkq8BsEHEaZaGagc-11" edge="1">
          <mxGeometry relative="1" as="geometry" />
        </mxCell>
        <mxCell id="wPPUQkq8BsEHEaZaGagc-6" value="Бухгалтер" style="sketch=0;outlineConnect=0;fontColor=#232F3E;gradientColor=none;fillColor=#232F3D;strokeColor=none;dashed=0;verticalLabelPosition=bottom;verticalAlign=top;align=center;html=1;fontSize=12;fontStyle=0;aspect=fixed;pointerEvents=1;shape=mxgraph.aws4.user;" parent="1" vertex="1">
          <mxGeometry x="901" y="530" width="78" height="78" as="geometry" />
        </mxCell>
        <mxCell id="sHouWCvEc6YfrePmr9zX-5" style="edgeStyle=orthogonalEdgeStyle;rounded=0;orthogonalLoop=1;jettySize=auto;html=1;exitX=1;exitY=0.25;exitDx=0;exitDy=0;entryX=0;entryY=0.5;entryDx=0;entryDy=0;" parent="1" source="wPPUQkq8BsEHEaZaGagc-7" target="wPPUQkq8BsEHEaZaGagc-3" edge="1">
          <mxGeometry relative="1" as="geometry" />
        </mxCell>
        <mxCell id="wPPUQkq8BsEHEaZaGagc-7" value="Учет&lt;div&gt;оплаты&lt;/div&gt;" style="shape=process;whiteSpace=wrap;html=1;backgroundOutline=1;fillColor=#fff2cc;strokeColor=#d6b656;" parent="1" vertex="1">
          <mxGeometry x="240" y="299" width="120" height="60" as="geometry" />
        </mxCell>
        <mxCell id="wPPUQkq8BsEHEaZaGagc-10" value="Excel-файл" style="whiteSpace=wrap;html=1;shape=mxgraph.basic.document" parent="1" vertex="1">
          <mxGeometry x="460" y="380" width="60" height="71" as="geometry" />
        </mxCell>
        <mxCell id="wPPUQkq8BsEHEaZaGagc-11" value="Процессинг платежей&lt;div&gt;и ведение бухгалтерии&lt;/div&gt;" style="shape=process;whiteSpace=wrap;html=1;backgroundOutline=1;fillColor=#fff2cc;strokeColor=#d6b656;" parent="1" vertex="1">
          <mxGeometry x="880" y="380" width="120" height="60" as="geometry" />
        </mxCell>
        <mxCell id="wPPUQkq8BsEHEaZaGagc-16" style="edgeStyle=orthogonalEdgeStyle;rounded=0;orthogonalLoop=1;jettySize=auto;html=1;exitX=1.001;exitY=0.697;exitDx=0;exitDy=0;entryX=0;entryY=0.5;entryDx=0;entryDy=0;entryPerimeter=0;exitPerimeter=0;" parent="1" source="wPPUQkq8BsEHEaZaGagc-7" target="wPPUQkq8BsEHEaZaGagc-10" edge="1">
          <mxGeometry relative="1" as="geometry">
            <mxPoint x="360" y="359" as="sourcePoint" />
            <Array as="points">
              <mxPoint x="411" y="341" />
              <mxPoint x="411" y="415" />
            </Array>
          </mxGeometry>
        </mxCell>
        <mxCell id="wPPUQkq8BsEHEaZaGagc-20" style="edgeStyle=orthogonalEdgeStyle;rounded=0;orthogonalLoop=1;jettySize=auto;html=1;exitX=1;exitY=0.5;exitDx=0;exitDy=0;entryX=0;entryY=0.5;entryDx=0;entryDy=0;" parent="1" source="wPPUQkq8BsEHEaZaGagc-18" target="wPPUQkq8BsEHEaZaGagc-5" edge="1">
          <mxGeometry relative="1" as="geometry" />
        </mxCell>
        <mxCell id="wPPUQkq8BsEHEaZaGagc-18" value="Передача данных о принятии средств" style="shape=process;whiteSpace=wrap;html=1;backgroundOutline=1;fillColor=#fff2cc;strokeColor=#d6b656;" parent="1" vertex="1">
          <mxGeometry x="680" y="200" width="120" height="60" as="geometry" />
        </mxCell>
        <mxCell id="wPPUQkq8BsEHEaZaGagc-31" style="edgeStyle=orthogonalEdgeStyle;rounded=0;orthogonalLoop=1;jettySize=auto;html=1;exitX=1;exitY=0.5;exitDx=0;exitDy=0;exitPerimeter=0;entryX=0;entryY=0.5;entryDx=0;entryDy=0;entryPerimeter=0;" parent="1" source="wPPUQkq8BsEHEaZaGagc-10" edge="1">
          <mxGeometry relative="1" as="geometry">
            <mxPoint x="653" y="416" as="targetPoint" />
          </mxGeometry>
        </mxCell>
        <mxCell id="wPPUQkq8BsEHEaZaGagc-33" style="edgeStyle=orthogonalEdgeStyle;rounded=0;orthogonalLoop=1;jettySize=auto;html=1;entryX=0.49;entryY=0;entryDx=0;entryDy=0;entryPerimeter=0;" parent="1" edge="1">
          <mxGeometry relative="1" as="geometry">
            <mxPoint x="890" y="260" as="sourcePoint" />
            <Array as="points">
              <mxPoint x="890" y="260" />
              <mxPoint x="890" y="321" />
              <mxPoint x="687" y="321" />
            </Array>
            <mxPoint x="687.3" y="381" as="targetPoint" />
          </mxGeometry>
        </mxCell>
        <mxCell id="wPPUQkq8BsEHEaZaGagc-39" value="" style="edgeStyle=orthogonalEdgeStyle;rounded=0;orthogonalLoop=1;jettySize=auto;html=1;" parent="1" source="wPPUQkq8BsEHEaZaGagc-2" target="wPPUQkq8BsEHEaZaGagc-35" edge="1">
          <mxGeometry relative="1" as="geometry">
            <mxPoint x="91" y="329" as="sourcePoint" />
            <mxPoint x="240" y="329" as="targetPoint" />
          </mxGeometry>
        </mxCell>
        <mxCell id="wPPUQkq8BsEHEaZaGagc-35" value="&lt;div style=&quot;text-align: left;&quot;&gt;&lt;span style=&quot;text-wrap-mode: nowrap; background-color: transparent; color: light-dark(rgb(0, 0, 0), rgb(255, 255, 255));&quot;&gt;Данные об услуге&lt;/span&gt;&lt;/div&gt;&lt;div style=&quot;text-align: left;&quot;&gt;&lt;span style=&quot;text-wrap-mode: nowrap; background-color: transparent; color: light-dark(rgb(0, 0, 0), rgb(255, 255, 255));&quot;&gt;и платеже&lt;/span&gt;&lt;/div&gt;" style="html=1;dashed=0;whiteSpace=wrap;fontSize=9;fillColor=#dae8fc;strokeColor=#6c8ebf;" parent="1" vertex="1">
          <mxGeometry x="122" y="314" width="90" height="30" as="geometry" />
        </mxCell>
        <mxCell id="sHouWCvEc6YfrePmr9zX-4" value="" style="edgeStyle=orthogonalEdgeStyle;rounded=0;orthogonalLoop=1;jettySize=auto;html=1;exitX=0.5;exitY=0;exitDx=0;exitDy=0;entryX=0.5;entryY=1;entryDx=0;entryDy=0;" parent="1" source="wPPUQkq8BsEHEaZaGagc-11" target="wPPUQkq8BsEHEaZaGagc-5" edge="1">
          <mxGeometry relative="1" as="geometry">
            <mxPoint x="940" y="380" as="sourcePoint" />
            <mxPoint x="939.0000000000002" y="343.9999999999999" as="targetPoint" />
          </mxGeometry>
        </mxCell>
        <mxCell id="sHouWCvEc6YfrePmr9zX-7" value="" style="edgeStyle=orthogonalEdgeStyle;rounded=0;orthogonalLoop=1;jettySize=auto;html=1;" parent="1" source="wPPUQkq8BsEHEaZaGagc-6" target="sHouWCvEc6YfrePmr9zX-6" edge="1">
          <mxGeometry relative="1" as="geometry">
            <mxPoint x="940" y="507" as="sourcePoint" />
            <mxPoint x="940" y="440" as="targetPoint" />
          </mxGeometry>
        </mxCell>
        <mxCell id="sHouWCvEc6YfrePmr9zX-6" value="&lt;div style=&quot;text-align: left;&quot;&gt;&lt;span style=&quot;text-wrap-mode: nowrap; background-color: transparent; color: light-dark(rgb(0, 0, 0), rgb(255, 255, 255));&quot;&gt;Данные о платежах&lt;/span&gt;&lt;/div&gt;&lt;div style=&quot;text-align: left;&quot;&gt;&lt;span style=&quot;text-wrap-mode: nowrap; background-color: transparent; color: light-dark(rgb(0, 0, 0), rgb(255, 255, 255));&quot;&gt;и бухгалтерии&lt;/span&gt;&lt;/div&gt;" style="html=1;dashed=0;whiteSpace=wrap;fontSize=9;fillColor=#dae8fc;strokeColor=#6c8ebf;" parent="1" vertex="1">
          <mxGeometry x="895" y="466" width="90" height="30" as="geometry" />
        </mxCell>
        <mxCell id="nYrL3mudUPcgEwXciKG6-1" value="Файловый&lt;div&gt;сервер&lt;/div&gt;" style="sketch=0;pointerEvents=1;shadow=0;dashed=0;html=1;strokeColor=none;labelPosition=center;verticalLabelPosition=bottom;verticalAlign=top;align=center;fillColor=#515151;shape=mxgraph.mscae.system_center.distribution_point" parent="1" vertex="1">
          <mxGeometry x="650" y="386" width="70" height="70" as="geometry" />
        </mxCell>
      </root>
    </mxGraphModel>
  </diagram>
  <diagram id="EQPoWcV0BjPJEOSz39F-" name="DFD Protected">
    <mxGraphModel dx="1042" dy="730" grid="1" gridSize="10" guides="1" tooltips="1" connect="1" arrows="1" fold="1" page="1" pageScale="1" pageWidth="827" pageHeight="1169" math="0" shadow="0">
      <root>
        <mxCell id="0" />
        <mxCell id="1" parent="0" />
        <mxCell id="8r7zq0nJDs9QDtY09AN_-1" style="edgeStyle=orthogonalEdgeStyle;rounded=0;orthogonalLoop=1;jettySize=auto;html=1;" parent="1" source="8r7zq0nJDs9QDtY09AN_-3" target="8r7zq0nJDs9QDtY09AN_-5" edge="1">
          <mxGeometry relative="1" as="geometry" />
        </mxCell>
        <mxCell id="8r7zq0nJDs9QDtY09AN_-2" value="Оплата за услуги" style="edgeLabel;html=1;align=center;verticalAlign=middle;resizable=0;points=[];" parent="8r7zq0nJDs9QDtY09AN_-1" vertex="1" connectable="0">
          <mxGeometry y="-1" relative="1" as="geometry">
            <mxPoint as="offset" />
          </mxGeometry>
        </mxCell>
        <mxCell id="8r7zq0nJDs9QDtY09AN_-3" value="Пациент" style="sketch=0;outlineConnect=0;fontColor=#232F3E;gradientColor=none;fillColor=#232F3D;strokeColor=none;dashed=0;verticalLabelPosition=bottom;verticalAlign=top;align=center;html=1;fontSize=12;fontStyle=0;aspect=fixed;pointerEvents=1;shape=mxgraph.aws4.user;" parent="1" vertex="1">
          <mxGeometry x="30" y="40" width="78" height="78" as="geometry" />
        </mxCell>
        <mxCell id="8r7zq0nJDs9QDtY09AN_-4" value="" style="edgeStyle=orthogonalEdgeStyle;rounded=0;orthogonalLoop=1;jettySize=auto;html=1;" parent="1" source="8r7zq0nJDs9QDtY09AN_-23" target="8r7zq0nJDs9QDtY09AN_-12" edge="1">
          <mxGeometry relative="1" as="geometry" />
        </mxCell>
        <mxCell id="8r7zq0nJDs9QDtY09AN_-5" value="Кассир" style="sketch=0;outlineConnect=0;fontColor=#232F3E;gradientColor=none;fillColor=#232F3D;strokeColor=none;dashed=0;verticalLabelPosition=bottom;verticalAlign=top;align=center;html=1;fontSize=12;fontStyle=0;aspect=fixed;pointerEvents=1;shape=mxgraph.aws4.user;" parent="1" vertex="1">
          <mxGeometry x="30" y="290" width="78" height="78" as="geometry" />
        </mxCell>
        <mxCell id="8r7zq0nJDs9QDtY09AN_-6" style="edgeStyle=orthogonalEdgeStyle;rounded=0;orthogonalLoop=1;jettySize=auto;html=1;exitX=1;exitY=0.5;exitDx=0;exitDy=0;entryX=0;entryY=0.5;entryDx=0;entryDy=0;" parent="1" source="8r7zq0nJDs9QDtY09AN_-7" target="8r7zq0nJDs9QDtY09AN_-17" edge="1">
          <mxGeometry relative="1" as="geometry" />
        </mxCell>
        <mxCell id="8r7zq0nJDs9QDtY09AN_-7" value="ККМ" style="rounded=0;whiteSpace=wrap;html=1;fillColor=#d5e8d4;strokeColor=#82b366;" parent="1" vertex="1">
          <mxGeometry x="473" y="200" width="120" height="60" as="geometry" />
        </mxCell>
        <mxCell id="ujLHmaF6TGcBR6eePv1D-7" style="edgeStyle=orthogonalEdgeStyle;rounded=0;orthogonalLoop=1;jettySize=auto;html=1;exitX=0.25;exitY=0;exitDx=0;exitDy=0;" parent="1" source="8r7zq0nJDs9QDtY09AN_-8" edge="1">
          <mxGeometry relative="1" as="geometry">
            <mxPoint x="880" y="120" as="targetPoint" />
          </mxGeometry>
        </mxCell>
        <mxCell id="ujLHmaF6TGcBR6eePv1D-8" style="edgeStyle=orthogonalEdgeStyle;rounded=0;orthogonalLoop=1;jettySize=auto;html=1;exitX=0.75;exitY=0;exitDx=0;exitDy=0;entryX=0.5;entryY=1;entryDx=0;entryDy=0;" parent="1" source="8r7zq0nJDs9QDtY09AN_-8" target="ujLHmaF6TGcBR6eePv1D-3" edge="1">
          <mxGeometry relative="1" as="geometry" />
        </mxCell>
        <mxCell id="8r7zq0nJDs9QDtY09AN_-8" value="1C: Бухгалтерия&lt;div&gt;предприятия&lt;/div&gt;" style="rounded=0;whiteSpace=wrap;html=1;fillColor=#d5e8d4;strokeColor=#82b366;" parent="1" vertex="1">
          <mxGeometry x="893" y="200" width="120" height="60" as="geometry" />
        </mxCell>
        <mxCell id="8r7zq0nJDs9QDtY09AN_-9" value="" style="edgeStyle=orthogonalEdgeStyle;rounded=0;orthogonalLoop=1;jettySize=auto;html=1;" parent="1" source="8r7zq0nJDs9QDtY09AN_-26" target="8r7zq0nJDs9QDtY09AN_-14" edge="1">
          <mxGeometry relative="1" as="geometry" />
        </mxCell>
        <mxCell id="ujLHmaF6TGcBR6eePv1D-9" style="edgeStyle=orthogonalEdgeStyle;rounded=0;orthogonalLoop=1;jettySize=auto;html=1;entryX=0;entryY=0.5;entryDx=0;entryDy=0;" parent="1" source="8r7zq0nJDs9QDtY09AN_-10" target="ujLHmaF6TGcBR6eePv1D-1" edge="1">
          <mxGeometry relative="1" as="geometry">
            <Array as="points">
              <mxPoint x="953" y="520" />
              <mxPoint x="1014" y="520" />
              <mxPoint x="1014" y="500" />
            </Array>
          </mxGeometry>
        </mxCell>
        <mxCell id="8r7zq0nJDs9QDtY09AN_-10" value="Бухгалтер" style="sketch=0;outlineConnect=0;fontColor=#232F3E;gradientColor=none;fillColor=#232F3D;strokeColor=none;dashed=0;verticalLabelPosition=bottom;verticalAlign=top;align=center;html=1;fontSize=12;fontStyle=0;aspect=fixed;pointerEvents=1;shape=mxgraph.aws4.user;" parent="1" vertex="1">
          <mxGeometry x="914" y="530" width="78" height="78" as="geometry" />
        </mxCell>
        <mxCell id="8r7zq0nJDs9QDtY09AN_-11" style="edgeStyle=orthogonalEdgeStyle;rounded=0;orthogonalLoop=1;jettySize=auto;html=1;exitX=1;exitY=0.25;exitDx=0;exitDy=0;entryX=0;entryY=0.5;entryDx=0;entryDy=0;" parent="1" source="8r7zq0nJDs9QDtY09AN_-12" target="8r7zq0nJDs9QDtY09AN_-7" edge="1">
          <mxGeometry relative="1" as="geometry" />
        </mxCell>
        <mxCell id="8r7zq0nJDs9QDtY09AN_-12" value="Учет&lt;div&gt;оплаты&lt;/div&gt;" style="shape=process;whiteSpace=wrap;html=1;backgroundOutline=1;fillColor=#fff2cc;strokeColor=#d6b656;" parent="1" vertex="1">
          <mxGeometry x="253" y="299" width="120" height="60" as="geometry" />
        </mxCell>
        <mxCell id="8r7zq0nJDs9QDtY09AN_-13" value="Excel-файл" style="whiteSpace=wrap;html=1;shape=mxgraph.basic.document" parent="1" vertex="1">
          <mxGeometry x="473" y="380" width="60" height="71" as="geometry" />
        </mxCell>
        <mxCell id="8r7zq0nJDs9QDtY09AN_-14" value="Процессинг платежей&lt;div&gt;и ведение бухгалтерии&lt;/div&gt;" style="shape=process;whiteSpace=wrap;html=1;backgroundOutline=1;fillColor=#fff2cc;strokeColor=#d6b656;" parent="1" vertex="1">
          <mxGeometry x="893" y="380" width="120" height="60" as="geometry" />
        </mxCell>
        <mxCell id="8r7zq0nJDs9QDtY09AN_-15" style="edgeStyle=orthogonalEdgeStyle;rounded=0;orthogonalLoop=1;jettySize=auto;html=1;exitX=1.001;exitY=0.697;exitDx=0;exitDy=0;entryX=0;entryY=0.5;entryDx=0;entryDy=0;entryPerimeter=0;exitPerimeter=0;" parent="1" source="8r7zq0nJDs9QDtY09AN_-12" target="8r7zq0nJDs9QDtY09AN_-13" edge="1">
          <mxGeometry relative="1" as="geometry">
            <mxPoint x="373" y="359" as="sourcePoint" />
            <Array as="points">
              <mxPoint x="424" y="341" />
              <mxPoint x="424" y="415" />
            </Array>
          </mxGeometry>
        </mxCell>
        <mxCell id="8r7zq0nJDs9QDtY09AN_-16" style="edgeStyle=orthogonalEdgeStyle;rounded=0;orthogonalLoop=1;jettySize=auto;html=1;exitX=1;exitY=0.5;exitDx=0;exitDy=0;entryX=0;entryY=0.5;entryDx=0;entryDy=0;" parent="1" source="8r7zq0nJDs9QDtY09AN_-17" target="8r7zq0nJDs9QDtY09AN_-8" edge="1">
          <mxGeometry relative="1" as="geometry" />
        </mxCell>
        <mxCell id="8r7zq0nJDs9QDtY09AN_-17" value="Передача данных о принятии средств" style="shape=process;whiteSpace=wrap;html=1;backgroundOutline=1;fillColor=#fff2cc;strokeColor=#d6b656;" parent="1" vertex="1">
          <mxGeometry x="693" y="200" width="120" height="60" as="geometry" />
        </mxCell>
        <mxCell id="8r7zq0nJDs9QDtY09AN_-19" style="edgeStyle=orthogonalEdgeStyle;rounded=0;orthogonalLoop=1;jettySize=auto;html=1;exitX=1;exitY=0.5;exitDx=0;exitDy=0;exitPerimeter=0;entryX=0;entryY=0.5;entryDx=0;entryDy=0;entryPerimeter=0;" parent="1" source="8r7zq0nJDs9QDtY09AN_-13" edge="1">
          <mxGeometry relative="1" as="geometry">
            <mxPoint x="666" y="416" as="targetPoint" />
          </mxGeometry>
        </mxCell>
        <mxCell id="8r7zq0nJDs9QDtY09AN_-21" style="edgeStyle=orthogonalEdgeStyle;rounded=0;orthogonalLoop=1;jettySize=auto;html=1;entryX=0.49;entryY=0;entryDx=0;entryDy=0;entryPerimeter=0;" parent="1" edge="1">
          <mxGeometry relative="1" as="geometry">
            <mxPoint x="903" y="260" as="sourcePoint" />
            <Array as="points">
              <mxPoint x="903" y="260" />
              <mxPoint x="903" y="321" />
              <mxPoint x="700" y="321" />
            </Array>
            <mxPoint x="700.3" y="381" as="targetPoint" />
          </mxGeometry>
        </mxCell>
        <mxCell id="8r7zq0nJDs9QDtY09AN_-22" value="" style="edgeStyle=orthogonalEdgeStyle;rounded=0;orthogonalLoop=1;jettySize=auto;html=1;" parent="1" source="8r7zq0nJDs9QDtY09AN_-5" target="8r7zq0nJDs9QDtY09AN_-23" edge="1">
          <mxGeometry relative="1" as="geometry">
            <mxPoint x="104" y="329" as="sourcePoint" />
            <mxPoint x="253" y="329" as="targetPoint" />
          </mxGeometry>
        </mxCell>
        <mxCell id="8r7zq0nJDs9QDtY09AN_-23" value="&lt;div style=&quot;text-align: left;&quot;&gt;&lt;span style=&quot;text-wrap-mode: nowrap; background-color: transparent; color: light-dark(rgb(0, 0, 0), rgb(255, 255, 255));&quot;&gt;Данные об услуге&lt;/span&gt;&lt;/div&gt;&lt;div style=&quot;text-align: left;&quot;&gt;&lt;span style=&quot;text-wrap-mode: nowrap; background-color: transparent; color: light-dark(rgb(0, 0, 0), rgb(255, 255, 255));&quot;&gt;и платеже&lt;/span&gt;&lt;/div&gt;" style="html=1;dashed=0;whiteSpace=wrap;fontSize=9;fillColor=#dae8fc;strokeColor=#6c8ebf;" parent="1" vertex="1">
          <mxGeometry x="135" y="314" width="90" height="30" as="geometry" />
        </mxCell>
        <mxCell id="8r7zq0nJDs9QDtY09AN_-24" value="" style="edgeStyle=orthogonalEdgeStyle;rounded=0;orthogonalLoop=1;jettySize=auto;html=1;exitX=0.5;exitY=0;exitDx=0;exitDy=0;entryX=0.5;entryY=1;entryDx=0;entryDy=0;" parent="1" source="8r7zq0nJDs9QDtY09AN_-14" target="8r7zq0nJDs9QDtY09AN_-8" edge="1">
          <mxGeometry relative="1" as="geometry">
            <mxPoint x="953" y="380" as="sourcePoint" />
            <mxPoint x="952.0000000000002" y="343.9999999999999" as="targetPoint" />
          </mxGeometry>
        </mxCell>
        <mxCell id="8r7zq0nJDs9QDtY09AN_-25" value="" style="edgeStyle=orthogonalEdgeStyle;rounded=0;orthogonalLoop=1;jettySize=auto;html=1;" parent="1" source="8r7zq0nJDs9QDtY09AN_-10" target="8r7zq0nJDs9QDtY09AN_-26" edge="1">
          <mxGeometry relative="1" as="geometry">
            <mxPoint x="953" y="507" as="sourcePoint" />
            <mxPoint x="953" y="440" as="targetPoint" />
          </mxGeometry>
        </mxCell>
        <mxCell id="8r7zq0nJDs9QDtY09AN_-26" value="&lt;div style=&quot;text-align: left;&quot;&gt;&lt;span style=&quot;text-wrap-mode: nowrap; background-color: transparent; color: light-dark(rgb(0, 0, 0), rgb(255, 255, 255));&quot;&gt;Данные о платежах&lt;/span&gt;&lt;/div&gt;&lt;div style=&quot;text-align: left;&quot;&gt;&lt;span style=&quot;text-wrap-mode: nowrap; background-color: transparent; color: light-dark(rgb(0, 0, 0), rgb(255, 255, 255));&quot;&gt;и бухгалтерии&lt;/span&gt;&lt;/div&gt;" style="html=1;dashed=0;whiteSpace=wrap;fontSize=9;fillColor=#dae8fc;strokeColor=#6c8ebf;" parent="1" vertex="1">
          <mxGeometry x="908" y="466" width="90" height="30" as="geometry" />
        </mxCell>
        <mxCell id="ujLHmaF6TGcBR6eePv1D-1" value="Keycloack" style="rounded=0;whiteSpace=wrap;html=1;fillColor=#e1d5e7;strokeColor=#9673a6;" parent="1" vertex="1">
          <mxGeometry x="1040" y="470" width="120" height="60" as="geometry" />
        </mxCell>
        <mxCell id="ujLHmaF6TGcBR6eePv1D-2" value="ELK" style="rounded=0;whiteSpace=wrap;html=1;fillColor=#e1d5e7;strokeColor=#9673a6;" parent="1" vertex="1">
          <mxGeometry x="808.5" y="58" width="120" height="60" as="geometry" />
        </mxCell>
        <mxCell id="ujLHmaF6TGcBR6eePv1D-3" value="Atlas" style="rounded=0;whiteSpace=wrap;html=1;fillColor=#e1d5e7;strokeColor=#9673a6;" parent="1" vertex="1">
          <mxGeometry x="968.5" y="58" width="120" height="60" as="geometry" />
        </mxCell>
        <mxCell id="ujLHmaF6TGcBR6eePv1D-4" value="Передача&lt;div&gt;шифрованных&lt;/div&gt;&lt;div&gt;данных&lt;/div&gt;" style="rounded=0;whiteSpace=wrap;html=1;fillColor=#f8cecc;strokeColor=#b85450;" parent="1" vertex="1">
          <mxGeometry x="704.5" y="267" width="108.5" height="47" as="geometry" />
        </mxCell>
        <mxCell id="Ve0_soBF2e3ovkQxM_qB-1" value="Файловый&lt;div&gt;сервер&lt;/div&gt;" style="sketch=0;pointerEvents=1;shadow=0;dashed=0;html=1;strokeColor=none;labelPosition=center;verticalLabelPosition=bottom;verticalAlign=top;align=center;fillColor=#515151;shape=mxgraph.mscae.system_center.distribution_point" parent="1" vertex="1">
          <mxGeometry x="663" y="381" width="70" height="70" as="geometry" />
        </mxCell>
        <mxCell id="Ve0_soBF2e3ovkQxM_qB-2" value="Veeam" style="rounded=0;whiteSpace=wrap;html=1;fillColor=#e1d5e7;strokeColor=#9673a6;" parent="1" vertex="1">
          <mxGeometry x="699" y="487.5" width="60" height="30" as="geometry" />
        </mxCell>
        <mxCell id="Ve0_soBF2e3ovkQxM_qB-3" value="Bitlocker/LUKS" style="rounded=0;whiteSpace=wrap;html=1;fillColor=#e1d5e7;strokeColor=#9673a6;" parent="1" vertex="1">
          <mxGeometry x="693" y="395.5" width="90" height="30" as="geometry" />
        </mxCell>
        <mxCell id="Ve0_soBF2e3ovkQxM_qB-4" value="Бэкап" style="sketch=0;pointerEvents=1;shadow=0;dashed=0;html=1;strokeColor=none;labelPosition=center;verticalLabelPosition=bottom;verticalAlign=top;align=center;fillColor=#515151;shape=mxgraph.mscae.system_center.distribution_point" parent="1" vertex="1">
          <mxGeometry x="663" y="525" width="70" height="70" as="geometry" />
        </mxCell>
        <mxCell id="Ve0_soBF2e3ovkQxM_qB-5" style="edgeStyle=orthogonalEdgeStyle;rounded=0;orthogonalLoop=1;jettySize=auto;html=1;exitX=0.5;exitY=1;exitDx=0;exitDy=0;exitPerimeter=0;entryX=0.49;entryY=0;entryDx=0;entryDy=0;entryPerimeter=0;" parent="1" source="Ve0_soBF2e3ovkQxM_qB-1" target="Ve0_soBF2e3ovkQxM_qB-4" edge="1">
          <mxGeometry relative="1" as="geometry" />
        </mxCell>
        <mxCell id="Ve0_soBF2e3ovkQxM_qB-6" value="Bitlocker/LUKS" style="rounded=0;whiteSpace=wrap;html=1;fillColor=#e1d5e7;strokeColor=#9673a6;" parent="1" vertex="1">
          <mxGeometry x="723" y="573" width="90" height="30" as="geometry" />
        </mxCell>
      </root>
    </mxGraphModel>
  </diagram>
</mxfile>
